<svg width="114" height="36" viewBox="0 0 114 36" fill="none" xmlns="http://www.w3.org/2000/svg">
<g opacity="0.25">
<path d="M31.2796 22.7794L31.2796 22.7794C32.0408 22.0177 32.0408 20.7833 31.2796 20.0216L31.2795 20.0215C30.5178 19.2603 29.2835 19.2603 28.5218 20.0215L28.5217 20.0216L26.7506 21.7926V12.9005C26.7506 11.8236 25.8775 10.9505 24.8006 10.9505C23.7238 10.9505 22.8506 11.8236 22.8506 12.9005V21.7926L21.0796 20.0216L21.0795 20.0215C20.3178 19.2603 19.0835 19.2603 18.3218 20.0215L18.3217 20.0216C17.5604 20.7833 17.5604 22.0177 18.3217 22.7794L18.3217 22.7794L23.4217 27.8794L23.4218 27.8795C24.1834 28.6407 25.4178 28.6407 26.1795 27.8795L26.1796 27.8794L31.2796 22.7794Z" fill="white" stroke="white" stroke-width="0.5"/>
<path d="M9.62043 12.9123C11.1673 5.95278 17.3748 0.750179 24.7998 0.75L9.62043 12.9123ZM9.62043 12.9123C4.54669 14.0244 0.75 18.543 0.75 23.95C0.75 30.191 5.80903 35.25 12.05 35.25H37.55C43.7906 35.25 48.85 30.191 48.85 23.95C48.85 18.5427 45.0533 14.0242 39.9796 12.9123C38.4325 5.95307 32.2255 0.750182 24.8002 0.75L9.62043 12.9123ZM13.2375 14.8664L13.2531 14.7388C14.0149 9.04401 18.8957 4.65 24.8002 4.65C30.7488 4.65 35.658 9.1098 36.3636 14.8665C36.4764 15.7865 37.2211 16.5004 38.1452 16.5735C41.9527 16.8752 44.9506 20.0633 44.9506 23.95C44.9506 28.0369 41.6374 31.35 37.5506 31.35H12.0506C7.96372 31.35 4.65058 28.0369 4.65058 23.95C4.65058 20.0633 7.64799 16.8752 11.456 16.5735C12.38 16.5004 13.1252 15.7866 13.2375 14.8664Z" fill="white" stroke="white" stroke-width="0.5"/>
</g>
<g opacity="0.25">
<mask id="path-3-outside-1_10_131" maskUnits="userSpaceOnUse" x="79.6001" y="0" width="34" height="36" fill="black">
<rect fill="white" x="79.6001" width="34" height="36"/>
<path fill-rule="evenodd" clip-rule="evenodd" d="M112.6 1H103.457V15.8751L108.029 11.625L112.6 15.8751V1ZM112.6 21.1876V19.0624H108.028V21.1876C108.028 21.7509 107.788 22.2916 107.359 22.6899C106.93 23.0886 106.349 23.3125 105.743 23.3125H87.4572C86.8514 23.3125 86.2698 23.0886 85.8413 22.6899C85.4124 22.2915 85.1717 21.7509 85.1717 21.1876V7.37503C85.1717 6.81139 85.4124 6.27107 85.8413 5.87234C86.2698 5.47398 86.8513 5.25015 87.4572 5.25015H98.8858V1.00003H87.4572C85.6389 1.00003 83.8946 1.67151 82.6087 2.86738C81.3227 4.06289 80.6001 5.68407 80.6001 7.37507V21.1876C80.6001 22.8782 81.3227 24.4998 82.6087 25.6953C83.8946 26.8908 85.6388 27.5627 87.4572 27.5627H105.743C107.561 27.5627 109.306 26.8908 110.591 25.6953C111.877 24.4998 112.6 22.8782 112.6 21.1876ZM87.457 35C88.7193 35 89.7429 34.0488 89.7429 32.8752C89.7429 31.7016 88.7193 30.75 87.457 30.75C86.1947 30.75 85.1715 31.7016 85.1715 32.8752C85.1715 34.0488 86.1947 35 87.457 35ZM98.8858 32.8752C98.8858 34.0488 97.8626 35 96.6003 35C95.338 35 94.3148 34.0488 94.3148 32.8752C94.3148 31.7016 95.338 30.75 96.6003 30.75C97.8626 30.75 98.8858 31.7016 98.8858 32.8752ZM105.743 35C107.005 35 108.028 34.0488 108.028 32.8752C108.028 31.7016 107.005 30.75 105.743 30.75C104.481 30.75 103.457 31.7016 103.457 32.8752C103.457 34.0488 104.481 35 105.743 35Z"/>
</mask>
<path fill-rule="evenodd" clip-rule="evenodd" d="M112.6 1H103.457V15.8751L108.029 11.625L112.6 15.8751V1ZM112.6 21.1876V19.0624H108.028V21.1876C108.028 21.7509 107.788 22.2916 107.359 22.6899C106.93 23.0886 106.349 23.3125 105.743 23.3125H87.4572C86.8514 23.3125 86.2698 23.0886 85.8413 22.6899C85.4124 22.2915 85.1717 21.7509 85.1717 21.1876V7.37503C85.1717 6.81139 85.4124 6.27107 85.8413 5.87234C86.2698 5.47398 86.8513 5.25015 87.4572 5.25015H98.8858V1.00003H87.4572C85.6389 1.00003 83.8946 1.67151 82.6087 2.86738C81.3227 4.06289 80.6001 5.68407 80.6001 7.37507V21.1876C80.6001 22.8782 81.3227 24.4998 82.6087 25.6953C83.8946 26.8908 85.6388 27.5627 87.4572 27.5627H105.743C107.561 27.5627 109.306 26.8908 110.591 25.6953C111.877 24.4998 112.6 22.8782 112.6 21.1876ZM87.457 35C88.7193 35 89.7429 34.0488 89.7429 32.8752C89.7429 31.7016 88.7193 30.75 87.457 30.75C86.1947 30.75 85.1715 31.7016 85.1715 32.8752C85.1715 34.0488 86.1947 35 87.457 35ZM98.8858 32.8752C98.8858 34.0488 97.8626 35 96.6003 35C95.338 35 94.3148 34.0488 94.3148 32.8752C94.3148 31.7016 95.338 30.75 96.6003 30.75C97.8626 30.75 98.8858 31.7016 98.8858 32.8752ZM105.743 35C107.005 35 108.028 34.0488 108.028 32.8752C108.028 31.7016 107.005 30.75 105.743 30.75C104.481 30.75 103.457 31.7016 103.457 32.8752C103.457 34.0488 104.481 35 105.743 35Z" fill="white"/>
<path d="M103.457 1V0.5H102.957V1H103.457ZM112.6 1H113.1V0.5H112.6V1ZM103.457 15.8751H102.957V17.0226L103.797 16.2413L103.457 15.8751ZM108.029 11.625L108.369 11.2588L108.029 10.9423L107.688 11.2588L108.029 11.625ZM112.6 15.8751L112.26 16.2413L113.1 17.0226V15.8751H112.6ZM112.6 19.0624H113.1V18.5624H112.6V19.0624ZM108.028 19.0624V18.5624H107.528V19.0624H108.028ZM107.359 22.6899L107.019 22.3236L107.018 22.3239L107.359 22.6899ZM85.8413 22.6899L86.1819 22.3239L86.1816 22.3236L85.8413 22.6899ZM85.8413 5.87234L86.1818 6.23854L86.1818 6.23853L85.8413 5.87234ZM98.8858 5.25015V5.75015H99.3858V5.25015H98.8858ZM98.8858 1.00003H99.3858V0.500031H98.8858V1.00003ZM82.6087 2.86738L82.9491 3.23358L82.9492 3.23352L82.6087 2.86738ZM82.6087 25.6953L82.2682 26.0615L82.2682 26.0615L82.6087 25.6953ZM103.457 1.5H112.6V0.5H103.457V1.5ZM103.957 15.8751V1H102.957V15.8751H103.957ZM107.688 11.2588L103.117 15.5089L103.797 16.2413L108.369 11.9912L107.688 11.2588ZM112.941 15.5089L108.369 11.2588L107.688 11.9912L112.26 16.2413L112.941 15.5089ZM112.1 1V15.8751H113.1V1H112.1ZM112.1 19.0624V21.1876H113.1V19.0624H112.1ZM108.028 19.5624H112.6V18.5624H108.028V19.5624ZM108.528 21.1876V19.0624H107.528V21.1876H108.528ZM107.699 23.0563C108.225 22.5673 108.528 21.8957 108.528 21.1876H107.528C107.528 21.6061 107.35 22.0158 107.019 22.3236L107.699 23.0563ZM105.743 23.8125C106.47 23.8125 107.175 23.5442 107.699 23.0559L107.018 22.3239C106.686 22.6331 106.227 22.8125 105.743 22.8125V23.8125ZM87.4572 23.8125H105.743V22.8125H87.4572V23.8125ZM85.5007 23.0559C86.0254 23.5442 86.7301 23.8125 87.4572 23.8125V22.8125C86.9726 22.8125 86.5142 22.6331 86.1819 22.3239L85.5007 23.0559ZM84.6717 21.1876C84.6717 21.8957 84.9746 22.5673 85.501 23.0563L86.1816 22.3236C85.8502 22.0158 85.6717 21.6061 85.6717 21.1876H84.6717ZM84.6717 7.37503V21.1876H85.6717V7.37503H84.6717ZM85.5009 5.50615C84.9747 5.99532 84.6717 6.66649 84.6717 7.37503H85.6717C85.6717 6.95629 85.8502 6.54681 86.1818 6.23854L85.5009 5.50615ZM87.4572 4.75015C86.7301 4.75015 86.0255 5.01841 85.5009 5.50615L86.1818 6.23853C86.5141 5.92955 86.9726 5.75015 87.4572 5.75015V4.75015ZM98.8858 4.75015H87.4572V5.75015H98.8858V4.75015ZM98.3858 1.00003V5.25015H99.3858V1.00003H98.3858ZM87.4572 1.50003H98.8858V0.500031H87.4572V1.50003ZM82.9492 3.23352C84.1389 2.12706 85.7602 1.50003 87.4572 1.50003V0.500031C85.5176 0.500031 83.6502 1.21596 82.2682 2.50125L82.9492 3.23352ZM81.1001 7.37507C81.1001 5.82898 81.7605 4.33864 82.9491 3.23358L82.2682 2.50119C80.885 3.78714 80.1001 5.53915 80.1001 7.37507H81.1001ZM81.1001 21.1876V7.37507H80.1001V21.1876H81.1001ZM82.9491 25.3291C81.7605 24.2241 81.1001 22.7333 81.1001 21.1876H80.1001C80.1001 23.0231 80.885 24.7755 82.2682 26.0615L82.9491 25.3291ZM87.4572 27.0627C85.7601 27.0627 84.139 26.4353 82.9491 25.3291L82.2682 26.0615C83.6502 27.3463 85.5174 28.0627 87.4572 28.0627V27.0627ZM105.743 27.0627H87.4572V28.0627H105.743V27.0627ZM110.251 25.3291C109.061 26.4353 107.44 27.0627 105.743 27.0627V28.0627C107.683 28.0627 109.55 27.3463 110.932 26.0615L110.251 25.3291ZM112.1 21.1876C112.1 22.7333 111.44 24.2241 110.251 25.3291L110.932 26.0615C112.315 24.7755 113.1 23.0231 113.1 21.1876H112.1ZM89.2429 32.8752C89.2429 33.7388 88.4783 34.5 87.457 34.5V35.5C88.9604 35.5 90.2429 34.3587 90.2429 32.8752H89.2429ZM87.457 31.25C88.4781 31.25 89.2429 32.0114 89.2429 32.8752H90.2429C90.2429 31.3917 88.9605 30.25 87.457 30.25V31.25ZM85.6715 32.8752C85.6715 32.0113 86.436 31.25 87.457 31.25V30.25C85.9533 30.25 84.6715 31.3918 84.6715 32.8752H85.6715ZM87.457 34.5C86.4358 34.5 85.6715 33.7389 85.6715 32.8752H84.6715C84.6715 34.3586 85.9535 35.5 87.457 35.5V34.5ZM96.6003 35.5C98.1038 35.5 99.3858 34.3586 99.3858 32.8752H98.3858C98.3858 33.7389 97.6215 34.5 96.6003 34.5V35.5ZM93.8148 32.8752C93.8148 34.3586 95.0968 35.5 96.6003 35.5V34.5C95.5791 34.5 94.8148 33.7389 94.8148 32.8752H93.8148ZM96.6003 30.25C95.0966 30.25 93.8148 31.3918 93.8148 32.8752H94.8148C94.8148 32.0113 95.5793 31.25 96.6003 31.25V30.25ZM99.3858 32.8752C99.3858 31.3918 98.104 30.25 96.6003 30.25V31.25C97.6213 31.25 98.3858 32.0113 98.3858 32.8752H99.3858ZM107.528 32.8752C107.528 33.7389 106.764 34.5 105.743 34.5V35.5C107.246 35.5 108.528 34.3586 108.528 32.8752H107.528ZM105.743 31.25C106.764 31.25 107.528 32.0113 107.528 32.8752H108.528C108.528 31.3918 107.247 30.25 105.743 30.25V31.25ZM103.957 32.8752C103.957 32.0114 104.722 31.25 105.743 31.25V30.25C104.239 30.25 102.957 31.3917 102.957 32.8752H103.957ZM105.743 34.5C104.722 34.5 103.957 33.7388 103.957 32.8752H102.957C102.957 34.3587 104.24 35.5 105.743 35.5V34.5Z" fill="white" mask="url(#path-3-outside-1_10_131)"/>
</g>
</svg>
