<svg width="29" height="24" viewBox="0 0 29 24" fill="none" xmlns="http://www.w3.org/2000/svg">
<g opacity="0.75">
<path d="M13.1428 16.8568C13.1428 17.488 13.6546 17.9998 14.2858 17.9998C14.9169 17.9998 15.4287 17.488 15.4287 16.8568V14.5712C15.4287 13.94 14.9169 13.4282 14.2858 13.4282C13.6546 13.4282 13.1428 13.94 13.1428 14.5712V16.8568Z" fill="#00FFF2"/>
<path fill-rule="evenodd" clip-rule="evenodd" d="M20.2858 8.31043V6.1427C20.2858 2.75022 17.5355 0 14.1431 0C10.7504 0 7.99983 2.75035 7.99983 6.1427V8.31018C6.59093 9.4036 5.71419 11.1526 5.71419 13.0652C4.28544 13.3306 3.04637 13.67 2.11342 14.0811C1.59779 14.3081 1.11276 14.5841 0.739475 14.9294C0.367105 15.2735 0 15.7906 0 16.4708C0 17.0426 0.2626 17.5037 0.564175 17.8357C0.860014 18.1609 1.24218 18.42 1.63873 18.6309C2.43392 19.0539 3.50922 19.4 4.74137 19.6772C5.12426 19.7633 5.52823 19.8441 5.9513 19.9192C6.65398 22.2793 8.84038 24 11.4285 24H16.8572C19.4265 24 21.5995 22.3044 22.3189 19.9713C22.8523 19.8819 23.3574 19.7836 23.8302 19.6772C25.0624 19.4 26.1376 19.0539 26.9328 18.6308C27.3294 18.4199 27.7116 18.1609 28.0074 17.8356C28.309 17.5037 28.5716 17.0426 28.5716 16.4708C28.5716 15.7447 28.1552 15.2063 27.7532 14.8588C27.3447 14.5058 26.8126 14.2226 26.2405 13.9885C25.2781 13.5951 24.0199 13.2681 22.5715 13.0132C22.5715 11.1193 21.6876 9.39328 20.2859 8.31039L20.2858 8.31043ZM10.286 6.1427V7.14287H18.0003V6.1427C18.0003 4.0125 16.2733 2.28553 14.1431 2.28553C12.0127 2.28553 10.286 4.0125 10.286 6.1427ZM16.8572 9.42852H11.4286C9.53511 9.42852 7.99996 10.9634 7.99996 12.8571V17.9172C9.84271 18.1504 11.987 18.2858 14.2859 18.2858C16.4671 18.2858 18.5088 18.1638 20.286 17.9524V12.8571C20.286 10.9634 18.7511 9.42847 16.8574 9.42847L16.8572 9.42852ZM14.2858 20.5715C16.1697 20.5715 17.9715 20.4839 19.6145 20.3237C18.9901 21.1674 17.9875 21.7144 16.8572 21.7144H11.4286C10.2846 21.7144 9.27135 21.1541 8.64857 20.2926C10.3734 20.4724 12.2833 20.5714 14.2858 20.5714V20.5715ZM5.71431 15.3934V17.548C4.69479 17.3411 3.63646 17.1046 2.71263 16.6131C2.61505 16.5612 2.53542 16.5134 2.47084 16.4705C2.60118 16.3844 2.7851 16.2828 3.03502 16.1728C3.67096 15.8925 4.57666 15.6244 5.71434 15.3934L5.71431 15.3934ZM25.3749 16.1044C24.689 15.8239 23.74 15.5603 22.5712 15.3372V17.6042C23.6864 17.3911 24.8506 17.1495 25.8587 16.6131C25.9562 16.5612 26.0359 16.5134 26.1007 16.4705C25.9402 16.3646 25.7042 16.239 25.3749 16.1044L25.3749 16.1044Z" fill="#00FFF2"/>
</g>
</svg>
