<svg width="17" height="16" viewBox="0 0 17 16" fill="none" xmlns="http://www.w3.org/2000/svg">
<path d="M9.86429 6.28571V6.63571H10.2143H15.3571C15.7949 6.63571 16.15 6.9908 16.15 7.42857V8.57143C16.15 9.0092 15.7949 9.36429 15.3571 9.36429H10.2143H9.86429V9.71429V14.8571C9.86429 15.2949 9.5092 15.65 9.07143 15.65H7.92857C7.4908 15.65 7.13571 15.2949 7.13571 14.8571V9.71429V9.36429H6.78571H1.64286C1.20509 9.36429 0.85 9.0092 0.85 8.57143V7.42857C0.85 6.9908 1.20509 6.63571 1.64286 6.63571H6.78571H7.13571V6.28571V1.14286C7.13571 0.705085 7.4908 0.35 7.92857 0.35H9.07143C9.5092 0.35 9.86429 0.705085 9.86429 1.14286V6.28571Z" fill="white" stroke="#161819" stroke-width="0.7"/>
</svg>
